<?xml version="1.0" encoding="utf-8"?>
<!-- Generator: Adobe Illustrator 23.0.1, SVG Export Plug-In . SVG Version: 6.00 Build 0)  -->
<svg version="1.1" id="Слой_1" xmlns="http://www.w3.org/2000/svg" xmlns:xlink="http://www.w3.org/1999/xlink" x="0px" y="0px"
	 viewBox="0 0 1366 768" style="enable-background:new 0 0 1366 768;" xml:space="preserve">
<style type="text/css">
	.st0{fill:#FFFFFF;}
</style>
<path class="st0" d="M272.47,289.91h-43.98l-27.95,86.56c-1.91,5.99-3.72,13.03-5.44,21.13h-0.57c-1.02-7.01-2.64-13.98-4.87-20.92
	l-27.95-86.76h-45.12v146.37h27.76v-80.94c0-10.89-0.41-23.54-1.24-37.97h0.86c1.97,10.96,3.4,17.76,4.29,20.41l32.63,98.5h25.18
	l32.05-99.52c1.27-3.95,2.7-10.41,4.29-19.39h0.76c-0.76,11.43-1.14,21.88-1.14,31.34v87.58h30.43V289.91z"/>
<path class="st0" d="M396.54,373.81c0-29.74-13.93-44.61-41.78-44.61c-5.98,0-12.61,0.89-19.89,2.65
	c-7.28,1.77-13.02,3.81-17.22,6.12v24.29c10.49-7.42,21.56-11.13,33.2-11.13c11.57,0,17.36,5.72,17.36,17.15l-26.52,3.78
	c-22.45,3.13-33.67,14.84-33.67,35.11c0,9.59,2.72,17.27,8.16,23.02c5.44,5.75,12.89,8.63,22.37,8.63c12.85,0,22.54-5.85,29.1-17.56
	h0.38v15h28.52V373.81z M362.87,409.69c-3.56,4.18-8.17,6.28-13.83,6.28c-4.07,0-7.3-1.17-9.68-3.52c-2.38-2.35-3.58-5.36-3.58-9.03
	c0-8.1,4.9-12.83,14.69-14.19l17.74-2.45v7.04C368.21,400.22,366.43,405.51,362.87,409.69z"/>
<path class="st0" d="M495.43,380.86l35.01-49.1h-35.77l-29.1,48.28h-0.38v-98.5h-30.14v154.74h30.14v-51.85h0.38l31.19,51.85h36.16
	L495.43,380.86z"/>
<path class="st0" d="M589.07,281.54h-30.15v154.74h30.15V281.54z"/>
<path class="st0" d="M714.71,423.73c9.51-10.07,14.26-23.78,14.26-41.14c0-16.06-4.61-28.97-13.83-38.74
	c-9.22-9.76-21.94-14.65-38.16-14.65c-16.47,0-29.54,4.88-39.21,14.65c-9.67,9.77-14.5,23.29-14.5,40.57
	c0,16.74,4.66,29.99,13.98,39.76c9.32,9.77,22.12,14.65,38.4,14.65C692.18,438.83,705.21,433.8,714.71,423.73z M698.26,383.2
	c0,20.62-7.22,30.93-21.65,30.93c-15.14,0-22.7-10.04-22.7-30.11c0-9.59,1.97-17.01,5.91-22.25c3.94-5.24,9.48-7.86,16.6-7.86
	C690.98,353.91,698.26,363.67,698.26,383.2L698.26,383.2z"/>
<path class="st0" d="M876.71,331.76l-12.69,68.18c-0.7,3.95-1.21,7.89-1.53,11.84h-0.67c-0.51-6.19-0.95-10.14-1.34-11.84
	l-15.07-68.18H816.7l-16.79,67.78c-0.83,3.27-1.4,7.28-1.72,12.04h-0.57c-0.32-4.56-0.8-8.44-1.43-11.64l-13.45-68.18h-30.72
	l27.57,104.52h31.29l15.45-61.65c0.83-3.33,1.46-7.66,1.91-12.96h0.57c0.13,4.83,0.67,9.29,1.62,13.37l14.4,61.24h31.67
	l28.14-104.52H876.71z"/>
<path class="st0" d="M957.09,438.83c5.85,0,11.5-0.63,16.93-1.89c5.44-1.26,10.24-3.27,14.4-6.02c4.16-2.76,7.5-6.33,10.02-10.72
	c2.51-4.39,3.77-9.68,3.77-15.87c0-4.42-0.62-8.23-1.86-11.43c-1.24-3.2-3.02-5.99-5.34-8.37c-2.32-2.38-5.1-4.46-8.35-6.23
	c-3.24-1.77-6.87-3.4-10.88-4.9c-2.23-0.82-4.47-1.62-6.73-2.4c-2.26-0.78-4.31-1.67-6.15-2.65c-1.85-0.99-3.34-2.16-4.48-3.52
	c-1.14-1.36-1.72-2.99-1.72-4.9c0-1.43,0.38-2.7,1.14-3.83c0.76-1.12,1.81-2.04,3.15-2.76c1.34-0.71,2.88-1.26,4.63-1.63
	c1.75-0.37,3.61-0.56,5.58-0.56c4.2,0,8.47,0.6,12.83,1.79c4.36,1.19,8.44,2.98,12.26,5.36v-24.91c-4.33-1.36-8.71-2.4-13.16-3.11
	c-4.45-0.71-8.84-1.07-13.16-1.07c-5.53,0-10.86,0.63-15.98,1.89c-5.12,1.26-9.67,3.23-13.64,5.92c-3.98,2.69-7.15,6.14-9.54,10.36
	c-2.38,4.22-3.58,9.26-3.58,15.11c0,4.29,0.52,8,1.57,11.13c1.05,3.13,2.58,5.89,4.58,8.27c2,2.38,4.48,4.48,7.44,6.28
	c2.96,1.8,6.38,3.49,10.26,5.05c2.42,1.02,4.93,1.94,7.54,2.76c2.61,0.82,5.01,1.74,7.2,2.76c2.19,1.02,3.99,2.21,5.39,3.57
	c1.4,1.36,2.1,3.06,2.1,5.1c0,3.2-1.54,5.58-4.63,7.15c-3.09,1.57-7.3,2.35-12.64,2.35c-4.39,0-9.05-0.78-13.98-2.35
	c-4.93-1.56-9.87-3.95-14.83-7.15v26.13C936.38,437.06,946.34,438.83,957.09,438.83L957.09,438.83z"/>
<path class="st0" d="M1094.61,380.86l35.01-49.1h-35.77l-29.1,48.28h-0.38v-98.5h-30.15v154.74h30.15v-51.85h0.38l31.19,51.85h36.15
	L1094.61,380.86z"/>
<path class="st0" d="M1221.26,331.76l-18.41,63.8c-1.53,5.24-2.58,9.83-3.15,13.78h-0.38c-0.64-5.37-1.53-10.04-2.67-13.98
	l-18.22-63.59h-33.39l39.68,104.32l-5.15,12.96c-3.05,7.82-8.46,11.74-16.22,11.74c-4.71,0-9.06-1.26-13.07-3.78v25.72
	c4.71,1.77,10.72,2.65,18.03,2.65c19.21,0,33.58-13.58,43.12-40.73l39.68-112.89H1221.26z"/>
</svg>
